<svg xmlns="http://www.w3.org/2000/svg" xmlns:xlink="http://www.w3.org/1999/xlink" shape-rendering="geometricPrecision" text-rendering="geometricPrecision" viewBox="0 0 32 32" style="white-space: pre;">
<style>
@keyframes a0_t { 0% { transform: translate(4.968786px,14.422956px); animation-timing-function: cubic-bezier(0,0,0.58,1); } 50% { transform: translate(10.968786px,14.422956px); animation-timing-function: cubic-bezier(0,0,0.58,1); } 100% { transform: translate(4.968786px,14.422956px); } }
@keyframes a1_t { 0% { transform: translate(19.968786px,14.422956px); animation-timing-function: cubic-bezier(0,0,0.58,1); } 50% { transform: translate(25.968786px,14.422956px); animation-timing-function: cubic-bezier(0,0,0.58,1); } 100% { transform: translate(19.968786px,14.422956px); } }
</style>

<ellipse rx="1.5" ry="1.5" fill="#000000" stroke="none" transform="translate(5.96879,15.423) translate(-1,-1)" style="animation: a0_t 4s linear infinite both;"/>
<ellipse rx="1.5" ry="1.5" fill="#000000" stroke="none" transform="translate(20.9688,15.423) translate(-1,-1)" style="animation: a1_t 4s linear infinite both;"/>
<rect width="10" height="1" fill="#000000" stroke="none" transform="translate(8,8.5) translate(-5,-0.5)"/>
<rect width="10" height="1" fill="#000000" stroke="none" transform="translate(8,20.5) translate(-5,-0.5)"/>
<rect width="1" height="13" fill="#000000" stroke="none" transform="translate(13.5,14.5) translate(-0.5,-6.5)"/>
<rect width="1" height="13" fill="#000000" stroke="none" transform="translate(2.5,14.5) translate(-0.5,-6.5)"/>
<rect width="10" height="1" fill="#000000" stroke="none" transform="translate(23,8.5) translate(-5,-0.5)"/>
<rect width="10" height="1" fill="#000000" stroke="none" transform="translate(23,20.5) translate(-5,-0.5)"/>
<rect width="1" height="13" fill="#000000" stroke="none" transform="translate(28.5,14.5) translate(-0.5,-6.5)"/>
<rect width="1" height="13" fill="#000000" stroke="none" transform="translate(17.5,14.5) translate(-0.5,-6.5)"/>
<rect width="3" height="1" fill="#000000" stroke="none" transform="translate(15.5,11.5) translate(-1.5,-0.5)"/>
<rect width="10" height="2" fill="#000000" stroke="none" transform="translate(8,5) translate(-5,-1)"/>
<rect width="10" height="2" fill="#000000" stroke="none" transform="translate(23,5) translate(-5,-1)"/>
</svg>
