<svg xmlns="http://www.w3.org/2000/svg" xmlns:xlink="http://www.w3.org/1999/xlink" shape-rendering="geometricPrecision" text-rendering="geometricPrecision" viewBox="0 0 32 32" style="white-space: pre;">
<style>
@keyframes toast_t { 0% { transform: translate(10.135px,21.876667px); } 33.3333% { transform: translate(10.135px,21.876667px); } 50% { transform: translate(10.135px,0.876667px); } 83.3333% { transform: translate(10.135px,0.876667px); } 100% { transform: translate(10.135px,21.876667px); } }
@keyframes blue_toaster_handle_t { 0% { transform: translate(23.44px,28.546664px); } 30% { transform: translate(23.44px,28.546664px); } 43.3333% { transform: translate(23.44px,22.581668px); } 83.3333% { transform: translate(23.44px,22.581668px); } 93.3333% { transform: translate(23.44px,22.581668px); } 100% { transform: translate(23.44px,28.580004px); } }
</style>
<g id="toast" transform="translate(15.135,26.3767) translate(-5,-4.5)" style="animation: toast_t 3s linear infinite both;">
<rect width="1" height="1" fill="#f0c537" stroke="#f0c537" stroke-width="1" transform="translate(8.5,4.5) translate(-0.5,-0.5)"/>
<rect width="1" height="1" fill="#f0c537" stroke="#f0c537" stroke-width="1" transform="translate(8.5,3.5) translate(-0.5,-0.5)"/>
<rect width="1" height="1" fill="#f0c537" stroke="#f0c537" stroke-width="1" transform="translate(9.5,2.5) translate(-0.5,-0.5)"/>
<rect width="1" height="1" fill="#f0c537" stroke="#f0c537" stroke-width="1" transform="translate(9.5,1.5) translate(-0.5,-0.5)"/>
<rect width="1" height="1" fill="#f0c537" stroke="#f0c537" stroke-width="1" transform="translate(8.5,0.5) translate(-0.5,-0.5)"/>
<rect width="1" height="1" fill="#f0c537" stroke="#f0c537" stroke-width="1" transform="translate(7.5,0.5) translate(-0.5,-0.5)"/>
<rect width="1" height="1" fill="#f0c537" stroke="#f0c537" stroke-width="1" transform="translate(6.5,1.5) translate(-0.5,-0.5)"/>
<rect width="1" height="1" fill="#f0c537" stroke="#f0c537" stroke-width="1" transform="translate(5.5,2.5) translate(-0.5,-0.5)"/>
<rect width="1" height="1" fill="#f0c537" stroke="#f0c537" stroke-width="1" transform="translate(4.5,2.5) translate(-0.5,-0.5)"/>
<rect width="1" height="1" fill="#f0c537" stroke="#f0c537" stroke-width="1" transform="translate(3.5,1.5) translate(-0.5,-0.5)"/>
<rect width="1" height="1" fill="#f0c537" stroke="#f0c537" stroke-width="1" transform="translate(2.5,0.5) translate(-0.5,-0.5)"/>
<rect width="1" height="1" fill="#f0c537" stroke="#f0c537" stroke-width="1" transform="translate(1.5,0.5) translate(-0.5,-0.5)"/>
<rect width="1" height="1" fill="#f0c537" stroke="#f0c537" stroke-width="1" transform="translate(0.5,1.5) translate(-0.5,-0.5)"/>
<rect width="1" height="1" fill="#f0c537" stroke="#f0c537" stroke-width="1" transform="translate(0.5,2.5) translate(-0.5,-0.5)"/>
<rect width="1" height="2" fill="#f0c537" stroke="#f0c537" stroke-width="1" transform="translate(1.5,3.5) translate(-0.5,-0.5)"/>
<rect width="1" height="2" fill="#f0c537" stroke="#f0c537" stroke-width="1" transform="translate(1.5,6.5) translate(-0.5,-0.5)"/>
<rect width="1" height="2" fill="#f0c537" stroke="#f0c537" stroke-width="1" transform="translate(1.5,7.5) translate(-0.5,-0.5)"/>
<rect width="1" height="2" fill="#f0c537" stroke="#f0c537" stroke-width="1" transform="translate(3.5,7.5) translate(-0.5,-0.5)"/>
<rect width="1" height="2" fill="#f0c537" stroke="#f0c537" stroke-width="1" transform="translate(4.5,7.5) translate(-0.5,-0.5)"/>
<rect width="1" height="2" fill="#f0c537" stroke="#f0c537" stroke-width="1" transform="translate(5.5,7.5) translate(-0.5,-0.5)"/>
<rect width="1" height="2" fill="#f0c537" stroke="#f0c537" stroke-width="1" transform="translate(6.5,7.5) translate(-0.5,-0.5)"/>
<rect width="1" height="2" fill="#f0c537" stroke="#f0c537" stroke-width="1" transform="translate(7.5,7.5) translate(-0.5,-0.5)"/>
<rect width="1" height="2" fill="#f0c537" stroke="#f0c537" stroke-width="1" transform="translate(8.5,7.5) translate(-0.5,-0.5)"/>
<rect width="1" height="2" fill="#f0c537" stroke="#f0c537" stroke-width="1" transform="translate(8.5,6.5) translate(-0.5,-0.5)"/>
<rect width="6" height="1" fill="#f6e7b8" stroke="#f6e7b8" stroke-width="1" transform="translate(5,4.5) translate(-3,-0.5)"/>
<rect width="6" height="1" fill="#f6e7b8" stroke="#f6e7b8" stroke-width="1" transform="translate(5,3.5) translate(-3,-0.5)"/>
<rect width="6" height="1" fill="#f6e7b8" stroke="#f6e7b8" stroke-width="1" transform="translate(5,6.5) translate(-3,-0.5)"/>
<rect width="6" height="1" fill="#f6e7b8" stroke="#f6e7b8" stroke-width="1" transform="translate(5,7.5) translate(-3,-0.5)"/>
<rect width="3" height="1" fill="#f6e7b8" stroke="#f6e7b8" stroke-width="1" transform="translate(2.5,2.5) translate(-1.5,-0.5)"/>
<rect width="3" height="1" fill="#f6e7b8" stroke="#f6e7b8" stroke-width="1" transform="translate(7.5,2.5) translate(-1.5,-0.5)"/>
<rect width="2" height="1" fill="#f6e7b8" stroke="#f6e7b8" stroke-width="1" transform="translate(8,1.5) translate(-1,-0.5)"/>
<rect width="2" height="1" fill="#f6e7b8" stroke="#f6e7b8" stroke-width="1" transform="translate(2,1.5) translate(-1,-0.5)"/>
</g>
<g id="toaster_body" transform="translate(15.0033,26.6175) translate(-8.00667,-5.3825)">
<rect width="13.595" height="0.876667" fill="#4bd9c3" stroke="#4bd9c3" transform="translate(7.50333,9.265) translate(-6.45,-0.5)"/>
<rect width="16" height="0.715" fill="#4bd9c3" stroke="#4bd9c3" transform="translate(7.50333,8.265) translate(-7.5,-0.5)"/>
<rect width="16" height="1" fill="#4bd9c3" stroke="#4bd9c3" transform="translate(7.50333,6.265) translate(-7.5,-0.5)"/>
<rect width="16" height="1" fill="#4bd9c3" stroke="#4bd9c3" transform="translate(7.50333,5.265) translate(-7.5,-0.5)"/>
<rect width="16" height="1" fill="#4bd9c3" stroke="#4bd9c3" transform="translate(7.50333,4.265) translate(-7.5,-0.5)"/>
<rect width="16" height="1" fill="#4bd9c3" stroke="#4bd9c3" transform="translate(7.50333,3.265) translate(-7.5,-0.5)"/>
<rect width="16.005" height="1.26" fill="#4bd9c3" stroke="#4bd9c3" transform="translate(7.50333,2.265) translate(-7.5,-0.76)"/>
<rect width="13.415" height="1.7525" fill="#4bd9c3" stroke="#4bd9c3" transform="translate(6.50333,1.265) translate(-5.225,-1.2525)"/>
<rect width="16" height="1" fill="#4bd9c3" stroke="#4bd9c3" transform="translate(7.50333,7.265) translate(-7.5,-0.5)"/>
<ellipse rx="1.0225" ry="0.935833" fill="#4bd9c3" stroke="#4bd9c3" transform="translate(14.9667,8.76333) translate(0.0225,-0.0158333)"/>
<ellipse rx="1.0225" ry="0.935833" fill="#4bd9c3" stroke="#4bd9c3" transform="translate(1,8.79667) translate(0.0225,-0.0158333)"/>
<ellipse rx="1.01625" ry="0.923334" fill="#4bd9c3" stroke="#4bd9c3" transform="translate(1,0.926667) translate(0.02875,-0.00333333)"/>
<ellipse rx="1.0225" ry="0.9325" fill="#4bd9c3" stroke="#4bd9c3" transform="translate(14.9683,0.951667) translate(0.0225,-0.0125)"/>
<rect width="2" height="1" fill="#4bd9c3" stroke="#4bd9c3" transform="translate(3.50333,10.265) translate(-1.5,-0.5)"/>
<rect width="2" height="1" fill="#4bd9c3" stroke="#4bd9c3" transform="translate(12.5033,10.265) translate(-0.5,-0.5)"/>
</g>
<rect id="blue_toaster_handle" width="1" height="1" fill="#4bd9c3" stroke="none" transform="translate(23.94,29.0467) translate(-0.5,-0.5)" style="animation: blue_toaster_handle_t 3s linear infinite both;"/>
</svg>
